<svg xmlns="http://www.w3.org/2000/svg"  viewBox="0 0 48 48" width="48px" height="48px"><path d="M 3.4667969 3.9863281 A 1.50015 1.50015 0 0 0 2.5625 6.671875 L 7.5625 10.671875 A 1.5007322 1.5007322 0 1 0 9.4375 8.328125 L 4.4375 4.328125 A 1.50015 1.50015 0 0 0 3.4667969 3.9863281 z M 44.488281 3.9863281 A 1.50015 1.50015 0 0 0 43.5625 4.328125 L 38.5625 8.328125 A 1.5007322 1.5007322 0 1 0 40.4375 10.671875 L 45.4375 6.671875 A 1.50015 1.50015 0 0 0 44.488281 3.9863281 z M 24 4 C 15.729 4 9 10.729 9 19 L 9 27.185547 L 6.2382812 33.498047 C 5.8982812 34.273047 5.9745 35.159188 6.4375 35.867188 C 6.9005 36.576188 7.6822969 37 8.5292969 37 L 39.470703 37 C 40.317703 37 41.0995 36.576188 41.5625 35.867188 C 42.0265 35.159188 42.101719 34.273047 41.761719 33.498047 L 39 27.185547 L 39 19 C 39 10.729 32.271 4 24 4 z M 1.5 16 A 1.50015 1.50015 0 1 0 1.5 19 L 5.5 19 A 1.50015 1.50015 0 1 0 5.5 16 L 1.5 16 z M 42.5 16 A 1.50015 1.50015 0 1 0 42.5 19 L 46.5 19 A 1.50015 1.50015 0 1 0 46.5 16 L 42.5 16 z M 18.349609 39 C 19.175609 41.327 21.393 43 24 43 C 26.607 43 28.824391 41.327 29.650391 39 L 18.349609 39 z"/></svg>