<svg xmlns="http://www.w3.org/2000/svg"  viewBox="0 0 48 48" width="48px" height="48px"><path d="M 11 9 C 7.686 9 5 11.686 5 15 L 5 16.089844 C 5.326 16.034844 5.659 16 6 16 C 9.314 16 12 18.686 12 22 L 12 27 L 36 27 L 36 22 C 36 18.686 38.686 16 42 16 C 42.341 16 42.674 16.034844 43 16.089844 L 43 15 C 43 11.686 40.314 9 37 9 L 11 9 z M 6 18 C 3.791 18 2 19.791 2 22 L 2 33.5 C 2 35.791547 3.7201146 37.662689 5.9355469 37.943359 L 5.4394531 38.439453 A 1.50015 1.50015 0 1 0 7.5605469 40.560547 L 10.121094 38 L 37.878906 38 L 40.439453 40.560547 A 1.50015 1.50015 0 1 0 42.560547 38.439453 L 42.064453 37.943359 C 44.279885 37.662689 46 35.791547 46 33.5 L 46 22 C 46 19.791 44.209 18 42 18 C 39.791 18 38 19.791 38 22 L 38 29 L 10 29 L 10 22 C 10 19.791 8.209 18 6 18 z"/></svg>