<svg xmlns="http://www.w3.org/2000/svg"  viewBox="0 0 24 24" width="24px" height="24px"><path d="M 12 0 C 10.5 4.5 7 1 7 7 L 9 7 C 9 2.300781 12 5.398438 12 0 Z M 14 1 C 13.199219 5.5 11 3.601563 11 7 L 13 7 C 13 3.898438 14 5.800781 14 1 Z M 3 8 L 3 24 L 17 24 L 17 8 Z M 18 11 L 18 13 L 20.1875 13 C 20.652344 13 21 13.347656 21 13.8125 L 21 15 C 21 15 20.972656 15.800781 20.59375 16.5625 C 20.214844 17.324219 19.667969 18 18 18 L 18 20 C 20.332031 20 21.785156 18.675781 22.40625 17.4375 C 23.027344 16.199219 23 15 23 15 L 23 13.8125 C 23 12.277344 21.722656 11 20.1875 11 Z"/></svg>