<svg xmlns="http://www.w3.org/2000/svg"  viewBox="0 0 24 24" width="24px" height="24px"><path d="M 5 0 L 4 7 L 6.1875 10 L 6 22 C 6 23.101563 6.90625 24 7.90625 24 C 9.105469 24 10 23.101563 10 22 L 9.8125 10 L 12 7 L 11 0 L 10 0 L 10 5.5 C 10 5.800781 9.800781 6 9.5 6 C 9.199219 6 9 5.800781 9 5.5 C 9 5.398438 8.59375 0 8.59375 0 L 7.40625 0 C 7.40625 0 7 5.398438 7 5.5 C 7 5.800781 6.800781 6 6.5 6 C 6.199219 6 6 5.800781 6 5.5 L 6 0 Z M 19.90625 0 C 18.804688 0 14.90625 2.699219 14.90625 6 C 14.90625 9.300781 16.90625 11.398438 16.90625 12.5 C 16.90625 14.699219 16.105469 18.207031 15.90625 21.90625 C 15.804688 23.007813 16.710938 24 17.8125 24 C 18.914063 24 19.804688 23.101563 19.90625 22 Z"/></svg>