<svg xmlns="http://www.w3.org/2000/svg"  viewBox="0 0 26 26" width="26px" height="26px"><path d="M 7.5 0 C 5.6875 0 4.375 1.21875 4.375 1.21875 C 3.941406 1.5625 3.875 2.195313 4.21875 2.625 C 4.5625 3.058594 5.195313 3.125 5.625 2.78125 C 5.625 2.78125 6.710938 2 7.5 2 C 8.449219 2 9.722656 2.636719 10 2.78125 L 10 4 C 9.96875 4 9.9375 4 9.90625 4 C 9.390625 4.046875 8.996094 4.480469 9 5 L 9 7 C 6.253906 7 4 9.253906 4 12 L 4 23 C 4 24.644531 5.355469 26 7 26 L 19 26 C 20.644531 26 22 24.644531 22 23 L 22 12 C 22 9.253906 19.746094 7 17 7 L 17 5 C 17 4.449219 16.550781 4 16 4 L 16 3 C 16.359375 3.003906 16.695313 2.816406 16.878906 2.503906 C 17.058594 2.191406 17.058594 1.808594 16.878906 1.496094 C 16.695313 1.183594 16.359375 0.996094 16 1 L 10.96875 1 C 10.636719 0.800781 9.226563 0 7.5 0 Z M 12 3 L 14 3 L 14 4 L 12 4 Z M 11 6 L 15 6 L 15 7 L 11 7 Z M 9 9 L 17 9 C 18.65625 9 20 10.34375 20 12 L 20 15 L 14.96875 15 C 14.71875 13.320313 13.246094 12 11.5 12 C 9.753906 12 8.28125 13.320313 8.03125 15 L 6 15 L 6 12 C 6 10.34375 7.34375 9 9 9 Z M 11.5 14 C 12.339844 14 13 14.660156 13 15.5 C 13 16.339844 12.339844 17 11.5 17 C 10.660156 17 10 16.339844 10 15.5 C 10 14.660156 10.660156 14 11.5 14 Z M 16 18 C 16.601563 18 17 18.398438 17 19 C 17 19.601563 16.601563 20 16 20 C 15.398438 20 15 19.601563 15 19 C 15 18.398438 15.398438 18 16 18 Z M 12 21 C 12.601563 21 13 21.398438 13 22 C 13 22.601563 12.601563 23 12 23 C 11.398438 23 11 22.601563 11 22 C 11 21.398438 11.398438 21 12 21 Z"/></svg>