<svg xmlns="http://www.w3.org/2000/svg"  viewBox="0 0 48 48" width="48px" height="48px"><path d="M 16.447266 2.9902344 A 1.50015 1.50015 0 0 0 15.806641 5.8300781 C 15.799865 5.8297559 15.797271 5.8364078 15.828125 5.875 C 15.895334 5.9589531 16 6.0833333 16 6.5 C 16 6.5833333 15.828125 6.9375 15.328125 7.5625 C 14.828125 8.1875 14 9.0833333 14 10.5 C 14 12 14.939453 13.060547 15.439453 13.560547 A 1.50015 1.50015 0 1 0 17.560547 11.439453 C 17.060547 10.939453 17 11 17 10.5 C 17 10.416667 17.171875 10.0625 17.671875 9.4375 C 18.171875 8.8125 19 7.9166667 19 6.5 C 19 5.4166667 18.604713 4.541047 18.171875 4 C 17.739037 3.458953 17.169922 3.1582031 17.169922 3.1582031 A 1.50015 1.50015 0 0 0 16.447266 2.9902344 z M 23.947266 2.9902344 A 1.50015 1.50015 0 0 0 23.306641 5.8300781 C 23.299865 5.8297559 23.297271 5.8364078 23.328125 5.875 C 23.395334 5.9589531 23.5 6.0833333 23.5 6.5 C 23.5 6.5833333 23.328125 6.9375 22.828125 7.5625 C 22.328125 8.1875 21.5 9.0833333 21.5 10.5 C 21.5 12 22.439453 13.060547 22.939453 13.560547 A 1.50015 1.50015 0 1 0 25.060547 11.439453 C 24.560547 10.939453 24.5 11 24.5 10.5 C 24.5 10.41667 24.671875 10.0625 25.171875 9.4375 C 25.671875 8.8125 26.5 7.9166667 26.5 6.5 C 26.5 5.4166667 26.104713 4.541047 25.671875 4 C 25.239037 3.458953 24.669922 3.1582031 24.669922 3.1582031 A 1.50015 1.50015 0 0 0 23.947266 2.9902344 z M 31.447266 2.9902344 A 1.50015 1.50015 0 0 0 30.806641 5.8300781 C 30.799865 5.8297559 30.797271 5.8364078 30.828125 5.875 C 30.895334 5.9589531 31 6.0833333 31 6.5 C 31 6.5833333 30.828125 6.9375 30.328125 7.5625 C 29.828125 8.1875 29 9.0833333 29 10.5 C 29 12 29.939453 13.060547 30.439453 13.560547 A 1.50015 1.50015 0 1 0 32.560547 11.439453 C 32.060547 10.939453 32 11 32 10.5 C 32 10.416667 32.171875 10.0625 32.671875 9.4375 C 33.171875 8.8125 34 7.9166667 34 6.5 C 34 5.4166667 33.604713 4.541047 33.171875 4 C 32.739037 3.458953 32.169922 3.1582031 32.169922 3.1582031 A 1.50015 1.50015 0 0 0 31.447266 2.9902344 z M 8.5 15 C 7.121 15 6 16.121 6 17.5 L 6 18 C 6 23.944851 8.9511113 28.753519 13.789062 31.496094 L 10.0625 44.074219 A 1.50015 1.50015 0 1 0 12.9375 44.925781 L 14.396484 40 L 33.806641 40 L 34.041016 40.730469 A 3 3 0 0 0 36 46 A 3 3 0 0 0 37.009766 40.175781 L 34.228516 31.486328 C 39.056187 28.742092 42 23.937757 42 18 L 42 17.5 C 42 16.121 40.879 15 39.5 15 L 8.5 15 z M 31.484375 32.744141 L 32.845703 37 L 15.285156 37 L 16.542969 32.753906 C 18.772104 33.558643 21.277901 34 24 34 C 26.733332 34 29.24838 33.55527 31.484375 32.744141 z"/></svg>