<svg xmlns="http://www.w3.org/2000/svg"  viewBox="0 0 48 48" width="48px" height="48px"><path d="M 18.953125 7 A 1.50015 1.50015 0 1 0 18.953125 10 L 33.884766 10 C 36.085584 10 37.985988 11.77821 38.242188 14.03125 L 38.240234 13.998047 L 38.792969 20 L 21 20 C 14.922028 20 9.7031586 23.591989 7.4511719 29.253906 A 1.50015 1.50015 0 0 0 7.4179688 29.341797 L 4.5742188 38.033203 A 1.50015 1.50015 0 0 0 6 40 L 42 40 A 1.50015 1.50015 0 0 0 43.494141 38.363281 L 41.226562 13.722656 A 1.50015 1.50015 0 0 0 41.222656 13.691406 C 40.798849 9.9644461 37.669947 7 33.884766 7 L 18.953125 7 z M 21 28 C 22.1 28 23 28.9 23 30 C 23 31.1 22.1 32 21 32 C 19.9 32 19 31.1 19 30 C 19 28.9 19.9 28 21 28 z M 29 28 C 30.1 28 31 28.9 31 30 C 31 31.1 30.1 32 29 32 C 27.9 32 27 31.1 27 30 C 27 28.9 27.9 28 29 28 z"/></svg>