<svg xmlns="http://www.w3.org/2000/svg"  viewBox="0 0 26 26" width="26px" height="26px"><path d="M 18 0.125 C 8.75 0.125 2.671875 4.203125 2 6 C 2 6 4 7.15625 4 10.90625 L 4 23 L 20 23 L 20 14.96875 C 20 14.96875 23 10.574219 23 5.96875 C 23 3.019531 22.03125 0.125 18 0.125 Z M 17.9375 2.9375 C 18.816406 2.835938 20 3.429688 20 4.5625 L 20 5.875 C 20 11.0625 17 13.371094 17 11.8125 L 17 3.90625 C 17 3.292969 17.410156 3 17.9375 2.9375 Z M 11.5 9.90625 C 12.882813 9.90625 14 11.023438 14 12.40625 L 14 18.59375 C 14 19.976563 12.882813 21.09375 11.5 21.09375 C 10.257813 21.09375 9.257813 20.183594 9.0625 19 L 11.5 19 C 11.679688 19.003906 11.847656 18.90625 11.9375 18.753906 C 12.03125 18.597656 12.03125 18.402344 11.9375 18.246094 C 11.847656 18.09375 11.679688 17.996094 11.5 18 L 9 18 L 9 16 L 11.5 16 C 11.679688 16.003906 11.847656 15.90625 11.9375 15.753906 C 12.03125 15.597656 12.03125 15.402344 11.9375 15.246094 C 11.847656 15.09375 11.679688 14.996094 11.5 15 L 9 15 L 9 13 L 11.5 13 C 11.679688 13.003906 11.847656 12.90625 11.9375 12.753906 C 12.03125 12.597656 12.03125 12.402344 11.9375 12.246094 C 11.847656 12.09375 11.679688 11.996094 11.5 12 L 9.0625 12 C 9.25 10.804688 10.25 9.90625 11.5 9.90625 Z M 23.5625 16.4375 C 23.476563 16.449219 23.394531 16.46875 23.3125 16.5 C 23.226563 16.519531 23.140625 16.550781 23.0625 16.59375 L 21.0625 17.59375 C 20.5625 17.835938 20.351563 18.4375 20.59375 18.9375 C 20.835938 19.4375 21.4375 19.648438 21.9375 19.40625 L 23.9375 18.40625 C 24.460938 18.28125 24.792969 17.769531 24.691406 17.242188 C 24.589844 16.714844 24.09375 16.359375 23.5625 16.4375 Z M 3 24 C 2.449219 24 2 24.449219 2 25 L 2 26 L 22 26 L 22 25 C 22 24.449219 21.550781 24 21 24 Z"/></svg>