<svg xmlns="http://www.w3.org/2000/svg"  viewBox="0 0 48 48" width="48px" height="48px"><path d="M 3.5 6 C 2.672 6 2 6.671 2 7.5 C 2 8.329 2.672 9 3.5 9 C 4.327 9 5 9.673 5 10.5 L 5 33.5 C 5 36.012284 6.695441 38.131866 9 38.787109 L 9 40.5 A 1.50015 1.50015 0 1 0 12 40.5 L 12 39 L 36 39 L 36 40.5 A 1.50015 1.50015 0 1 0 39 40.5 L 39 38.787109 C 41.304559 38.131866 43 36.012284 43 33.5 L 43 12.746094 A 1.50015 1.50015 0 0 0 43 12.259766 L 43 10.5 C 43 9.673 43.673 9 44.5 9 C 45.328 9 46 8.329 46 7.5 C 46 6.671 45.328 6 44.5 6 C 42.019 6 40 8.019 40 10.5 L 40 11 L 34.746094 11 A 1.50015 1.50015 0 0 0 34.259766 11 L 27.746094 11 A 1.50015 1.50015 0 0 0 27.259766 11 L 20.746094 11 A 1.50015 1.50015 0 0 0 20.259766 11 L 13.746094 11 A 1.50015 1.50015 0 0 0 13.476562 10.978516 A 1.50015 1.50015 0 0 0 13.259766 11 L 8 11 L 8 10.5 C 8 8.019 5.981 6 3.5 6 z M 8 14 L 12 14 L 12 30 L 8 30 L 8 14 z M 15 14 L 19 14 L 19 30 L 15 30 L 15 14 z M 22 14 L 26 14 L 26 30 L 22 30 L 22 14 z M 29 14 L 33 14 L 33 30 L 29 30 L 29 14 z M 36 14 L 40 14 L 40 30 L 36 30 L 36 14 z"/></svg>