<svg xmlns="http://www.w3.org/2000/svg"  viewBox="0 0 48 48" width="48px" height="48px"><path d="M 3.5253906 7.9785156 A 1.50015 1.50015 0 0 0 2.0195312 9.7460938 L 6.1835938 34.732422 C 6.7855329 38.339072 9.926222 41 13.582031 41 L 34.417969 41 C 38.073778 41 41.2137 38.339435 41.814453 34.732422 L 45.980469 9.7460938 A 1.5007833 1.5007833 0 1 0 43.019531 9.2539062 L 41.5625 18 L 40.5 18 C 36.872018 18 35.043112 16.422018 33.060547 14.439453 A 1.50015 1.50015 0 0 0 30.939453 14.439453 C 28.870698 16.508208 27.627982 18 24 18 C 20.372018 18 19.129302 16.508208 17.060547 14.439453 A 1.50015 1.50015 0 0 0 15.978516 14 A 1.50015 1.50015 0 0 0 14.939453 14.439453 C 12.956888 16.422018 11.127982 18 7.5 18 L 6.4375 18 L 4.9804688 9.2539062 A 1.50015 1.50015 0 0 0 3.5253906 7.9785156 z M 16 27 C 17.105 27 18 27.895 18 29 C 18 30.105 17.105 31 16 31 C 14.895 31 14 30.105 14 29 C 14 27.895 14.895 27 16 27 z M 24 27 C 25.105 27 26 27.895 26 29 C 26 30.105 25.105 31 24 31 C 22.895 31 22 30.105 22 29 C 22 27.895 22.895 27 24 27 z M 32 27 C 33.105 27 34 27.895 34 29 C 34 30.105 33.105 31 32 31 C 30.895 31 30 30.105 30 29 C 30 27.895 30.895 27 32 27 z"/></svg>