<svg xmlns="http://www.w3.org/2000/svg"  viewBox="0 0 26 26" width="26px" height="26px"><path d="M 5 2 C 3.898438 2 3 2.898438 3 4 L 3 22 C 3 23.101563 3.898438 24 5 24 L 21 24 C 22.101563 24 23 23.101563 23 22 L 23 4 C 23 2.898438 22.101563 2 21 2 Z M 9 7 L 14.3125 7 C 17.414063 7 18.40625 8.886719 18.40625 10.6875 C 18.40625 13.085938 16.8125 14.40625 14.3125 14.40625 L 11.09375 14.40625 L 11.09375 19 L 9 19 Z M 11.09375 8.6875 L 11.09375 12.6875 L 14.1875 12.6875 C 14.988281 12.6875 16.3125 12.289063 16.3125 10.6875 C 16.3125 9.289063 15.488281 8.6875 14.1875 8.6875 Z"/></svg>