<svg xmlns="http://www.w3.org/2000/svg"  viewBox="0 0 32 32" width="32px" height="32px"><path d="M 3.4179688 5.4179688 L 4.7558594 9.4257812 C 4.8803834 9.7986803 4.8927541 10.192244 4.7929688 10.5625 C 4.4840492 11.707596 4 13.808538 4 16 C 4 18.192233 4.4839686 20.293364 4.7929688 21.4375 C 4.8927537 21.807756 4.8803834 22.199367 4.7558594 22.572266 L 3.4179688 26.582031 L 7.5214844 25.212891 C 7.8633347 25.099388 8.2202612 25.079731 8.5722656 25.154297 C 9.9675001 25.449383 12.946857 26 16 26 C 19.053143 26 22.031312 25.449439 23.425781 25.154297 C 23.77933 25.079547 24.136338 25.099711 24.476562 25.212891 L 28.582031 26.582031 L 27.949219 24.683594 L 27.244141 22.574219 C 27.119617 22.201324 27.107246 21.807756 27.207031 21.4375 C 27.515951 20.292404 28 18.191462 28 16 C 28 13.807767 27.516031 11.706636 27.207031 10.5625 C 27.107241 10.192244 27.119621 9.8006333 27.244141 9.4277344 L 28.582031 5.4179688 L 24.476562 6.7871094 C 24.13529 6.900055 23.779087 6.9201308 23.427734 6.8457031 C 22.0325 6.5506167 19.053143 6 16 6 C 12.946857 6 9.9675001 6.5506167 8.5722656 6.8457031 C 8.2202612 6.9202689 7.8636617 6.9002942 7.5234375 6.7871094 L 3.4179688 5.4179688 z M 16 8 C 18.808857 8 21.694906 8.5238208 23.013672 8.8027344 C 23.709667 8.9501686 24.431273 8.9100444 25.107422 8.6855469 L 25.109375 8.6855469 L 25.417969 8.5820312 L 25.347656 8.7949219 C 25.10213 9.530023 25.071176 10.326241 25.275391 11.083984 C 25.558391 12.131849 26 14.110233 26 16 C 26 17.889767 25.558486 19.868795 25.275391 20.917969 C 25.071176 21.675713 25.102175 22.47193 25.347656 23.207031 L 25.417969 23.417969 L 25.197266 23.34375 C 25.156266 23.32288 24.443409 22.962765 23.533203 22.390625 C 22.597241 21.802295 21.511318 20.992775 21.007812 20.371094 L 19.453125 21.628906 C 20.020653 22.329638 20.823424 22.834994 21.580078 23.361328 C 20.07655 23.637261 18.235342 24 16 24 C 13.191143 24 10.305094 23.476179 8.9863281 23.197266 C 8.2903325 23.049831 7.5687274 23.089956 6.8925781 23.314453 L 6.890625 23.314453 L 6.5820312 23.417969 L 6.6523438 23.205078 C 6.8978162 22.469977 6.928824 21.673759 6.7246094 20.916016 C 6.4416095 19.868151 6 17.889767 6 16 C 6 14.110233 6.4415141 12.131205 6.7246094 11.082031 C 6.928824 10.324287 6.8978197 9.5280698 6.6523438 8.7929688 L 6.5820312 8.5820312 L 6.78125 8.6484375 C 6.9048155 8.7302585 8.7489796 9.9538303 10.572266 11.017578 L 11.580078 9.2910156 C 11.077797 8.997973 11.005716 8.9283016 10.519531 8.6269531 C 12.02388 8.3541492 13.805178 8 16 8 z"/></svg>