<svg xmlns="http://www.w3.org/2000/svg"  viewBox="0 0 24 24" width="24px" height="24px"><path d="M 12 0 C 10.148438 0 8.609375 1.257813 8.15625 2.96875 C 3.792969 3.847656 2 6 2 6 L 22 6 C 22 6 20.207031 3.847656 15.84375 2.96875 C 15.390625 1.257813 13.851563 0 12 0 Z M 12 2 C 12.640625 2 13.148438 2.253906 13.5 2.65625 C 13.023438 2.625 12.523438 2.59375 12 2.59375 C 11.476563 2.59375 10.976563 2.625 10.5 2.65625 C 10.851563 2.253906 11.359375 2 12 2 Z M 2 7 C 0.898438 7 0 7.898438 0 9 C 1.101563 9 2 9.898438 2 11 L 2 11.59375 L 0.625 11.25 L 0.1875 13.15625 L 2 13.59375 L 2 18 C 2 21.300781 4.699219 24 8 24 L 16 24 C 19.300781 24 22 21.300781 22 18 L 22 13.59375 L 23.8125 13.15625 L 23.375 11.25 L 22 11.59375 L 22 11 C 22 9.898438 22.898438 9 24 9 C 24 7.898438 23.101563 7 22 7 Z"/></svg>