<svg xmlns="http://www.w3.org/2000/svg"  viewBox="0 0 48 48" width="48px" height="48px"><path d="M 9.5 8 C 6.467 8 4 10.467 4 13.5 L 4 34.5 C 4 37.365168 6.2014575 39.722191 9.0019531 39.974609 A 2 2 0 0 0 11 42 A 2 2 0 0 0 12.998047 40 L 35.001953 40 A 2 2 0 0 0 37 42 A 2 2 0 0 0 39 39.974609 C 41.79958 39.721284 44 37.364511 44 34.5 L 44 13.5 C 44 10.467 41.533 8 38.5 8 L 9.5 8 z M 29 15 C 33.962 15 38 19.038 38 24 C 38 28.962 33.962 33 29 33 C 24.038 33 20 28.962 20 24 C 20 19.038 24.038 15 29 15 z M 29 18 A 6 6 0 0 0 29 30 A 6 6 0 0 0 29 18 z M 11.5 19 C 12.329 19 13 19.671 13 20.5 L 13 27.5 C 13 28.329 12.329 29 11.5 29 C 10.671 29 10 28.329 10 27.5 L 10 20.5 C 10 19.671 10.671 19 11.5 19 z"/></svg>