<svg xmlns="http://www.w3.org/2000/svg"  viewBox="0 0 48 48" width="48px" height="48px"><path d="M 3.5 9 A 1.50015 1.50015 0 1 0 3.5 12 L 44.5 12 A 1.50015 1.50015 0 1 0 44.5 9 L 3.5 9 z M 5.5800781 14 L 4.0058594 37.617188 C 3.9388594 38.624187 4.5291406 39.605391 5.4941406 39.900391 C 6.7421406 40.282391 7.9628594 39.534328 8.2558594 38.361328 L 12.466797 21.515625 C 12.689797 20.625625 13.490203 20 14.408203 20 L 33.587891 20 C 34.505891 20 35.305344 20.625625 35.527344 21.515625 L 39.722656 38.289062 C 39.923656 39.092062 40.533797 39.767313 41.341797 39.945312 C 42.814797 40.270313 44.089094 39.103359 43.996094 37.693359 L 42.416016 14 L 5.5800781 14 z"/></svg>