<svg xmlns="http://www.w3.org/2000/svg"  viewBox="0 0 32 32" width="32px" height="32px"><path d="M 15.380859 4.7519531 L 3.5800781 10.681641 L 16.945312 16.8125 C 17.519194 17.098438 17.878906 17.676513 17.878906 18.316406 C 17.878906 18.931106 17.561286 19.407422 17.132812 19.701172 L 17.003906 19.771484 C 16.551411 20.017193 15.99233 20.092844 15.447266 19.820312 L 15.4375 19.814453 L 8.7226562 16.630859 L 10.103516 15.875 L 7.8398438 14.835938 L 4.7890625 16.507812 L 4.7988281 16.525391 C 3.7522189 17.138299 3 18.254452 3 19.609375 C 3 20.900977 3.6950843 22.097793 4.8183594 22.738281 L 4.8476562 22.755859 L 16.494141 28.394531 L 29.740234 20.207031 L 27.591797 19.087891 L 27.068359 18.814453 L 24.960938 19.970703 L 25.697266 20.355469 L 16.376953 26.117188 L 5.8066406 21 C 5.3073854 20.714151 5 20.184818 5 19.609375 C 5 18.994565 5.3018236 18.507758 5.734375 18.232422 L 5.75 18.261719 L 6.1582031 18.039062 C 6.5462592 17.934717 6.9859587 17.978025 7.4003906 18.214844 L 7.4335938 18.234375 L 14.558594 21.611328 C 15.586347 22.122947 16.673435 22.003101 17.619141 21.585938 L 17.673828 21.685547 L 27.400391 16.353516 L 27.447266 16.320312 C 28.363721 15.671553 29 14.578095 29 13.316406 C 29 11.919886 28.205205 10.638529 26.955078 10.017578 L 26.939453 10.011719 L 15.380859 4.7519531 z M 15.423828 6.96875 L 26.064453 11.810547 C 26.638326 12.095596 27 12.676926 27 13.316406 C 27 13.916268 26.7172 14.376298 26.296875 14.677734 L 19.849609 18.212891 C 19.808529 16.859448 19.049299 15.623498 17.832031 15.019531 L 17.818359 15.011719 L 8.1992188 10.599609 L 15.423828 6.96875 z"/></svg>