<svg xmlns="http://www.w3.org/2000/svg"  viewBox="0 0 48 48" width="48px" height="48px"><path d="M 8.5 7 C 5.467 7 3 9.467 3 12.5 L 3 30.5 C 3 33.533 5.467 36 8.5 36 L 39.5 36 C 42.533 36 45 33.533 45 30.5 L 45 12.5 C 45 9.467 42.533 7 39.5 7 L 8.5 7 z M 20.955078 15.996094 C 21.123734 15.988359 21.300297 16.023828 21.466797 16.111328 L 30.025391 20.615234 C 30.737391 20.989234 30.736437 22.009766 30.023438 22.384766 L 21.464844 26.890625 C 20.799844 27.240625 20 26.757859 20 26.005859 L 20 16.996094 C 20 16.431344 20.449109 16.019297 20.955078 15.996094 z M 15.5 39 A 1.50015 1.50015 0 1 0 15.5 42 L 32.5 42 A 1.50015 1.50015 0 1 0 32.5 39 L 15.5 39 z"/></svg>