<svg xmlns="http://www.w3.org/2000/svg"  viewBox="0 0 48 48" width="48px" height="48px"><path d="M 10.5 7 C 7.468 7 5 9.467 5 12.5 L 5 16 L 43 16 L 43 12.5 C 43 9.467 40.532 7 37.5 7 L 10.5 7 z M 24 10 C 24.828 10 25.5 10.672 25.5 11.5 C 25.5 12.328 24.828 13 24 13 C 23.172 13 22.5 12.328 22.5 11.5 C 22.5 10.672 23.172 10 24 10 z M 5 19 L 5 28 L 43 28 L 43 19 L 5 19 z M 24 22 C 24.828 22 25.5 22.672 25.5 23.5 C 25.5 24.328 24.828 25 24 25 C 23.172 25 22.5 24.328 22.5 23.5 C 22.5 22.672 23.172 22 24 22 z M 5 31 L 5 34.5 C 5 37.012284 6.695441 39.131866 9 39.787109 L 9 41.5 A 1.50015 1.50015 0 1 0 12 41.5 L 12 40 L 36 40 L 36 41.5 A 1.50015 1.50015 0 1 0 39 41.5 L 39 39.787109 C 41.304559 39.131866 43 37.012284 43 34.5 L 43 31 L 5 31 z M 24 34 C 24.828 34 25.5 34.672 25.5 35.5 C 25.5 36.328 24.828 37 24 37 C 23.172 37 22.5 36.328 22.5 35.5 C 22.5 34.672 23.172 34 24 34 z"/></svg>